<?xml version="1.0" encoding="UTF-8" standalone="no"?>
<svg width="336px" height="371px" viewBox="0 0 336 371" version="1.1" xmlns="http://www.w3.org/2000/svg" xmlns:xlink="http://www.w3.org/1999/xlink" xmlns:sketch="http://www.bohemiancoding.com/sketch/ns">
    <!-- Generator: Sketch 3.3.2 (12043) - http://www.bohemiancoding.com/sketch -->
    <title>Group</title>
    <desc>Created with Sketch.</desc>
    <defs>
        <rect id="path-1" x="10" y="191" width="180" height="20" rx="3"></rect>
        <rect id="path-2" x="10" y="161" width="180" height="20" rx="3"></rect>
        <rect id="path-3" x="10" y="131" width="180" height="20" rx="3"></rect>
        <rect id="path-4" x="10" y="101" width="180" height="20" rx="3"></rect>
        <rect id="path-5" x="10" y="71" width="180" height="20" rx="3"></rect>
        <rect id="path-6" x="10" y="41" width="180" height="20" rx="3"></rect>
        <rect id="path-7" x="10" y="191" width="180" height="20" rx="3"></rect>
        <rect id="path-8" x="10" y="70" width="82" height="111" rx="3"></rect>
        <rect id="path-9" x="101" y="70" width="88" height="83" rx="3"></rect>
        <rect id="path-10" x="10" y="22" width="180" height="39" rx="3"></rect>
    </defs>
    <g id="Page-1" stroke="none" stroke-width="1" fill="none" fill-rule="evenodd" sketch:type="MSPage">
        <g id="Desktop-HD" sketch:type="MSArtboardGroup" transform="translate(-923.000000, -251.000000)">
            <g id="Group" sketch:type="MSLayerGroup" transform="translate(924.000000, 253.000000)">
                <g id="List-+-Group-+-Oval-1-+-1-" transform="translate(34.000000, 0.000000)">
                    <g id="Group-+-Oval-1-+-1-">
                        <g id="Group" transform="translate(0.000000, 15.000000)">
                            <rect id="Rectangle-3" fill="#FFFFFF" sketch:type="MSShapeGroup" x="0" y="0" width="200" height="250" rx="5"></rect>
                            <g id="Rectangle-8">
                                <use fill="#E4E4E4" fill-rule="evenodd" sketch:type="MSShapeGroup" xlink:href="#path-1"></use>
                                <use fill="none" xlink:href="#path-1"></use>
                            </g>
                            <g id="Rectangle-7">
                                <use fill="#E4E4E4" fill-rule="evenodd" sketch:type="MSShapeGroup" xlink:href="#path-2"></use>
                                <use fill="none" xlink:href="#path-2"></use>
                            </g>
                            <g id="Rectangle-6">
                                <use fill="#E4E4E4" fill-rule="evenodd" sketch:type="MSShapeGroup" xlink:href="#path-3"></use>
                                <use fill="none" xlink:href="#path-3"></use>
                            </g>
                            <g id="Rectangle-5">
                                <use fill="#E4E4E4" fill-rule="evenodd" sketch:type="MSShapeGroup" xlink:href="#path-4"></use>
                                <use fill="none" xlink:href="#path-4"></use>
                            </g>
                            <g id="Rectangle-4-Copy">
                                <use fill="#E4E4E4" fill-rule="evenodd" sketch:type="MSShapeGroup" xlink:href="#path-5"></use>
                                <use fill="none" xlink:href="#path-5"></use>
                            </g>
                            <g id="Rectangle-4">
                                <use fill="#E4E4E4" fill-rule="evenodd" sketch:type="MSShapeGroup" xlink:href="#path-6"></use>
                                <use fill="none" xlink:href="#path-6"></use>
                            </g>
                        </g>
                        <g id="Oval-1-+-1-" transform="translate(181.000000, 0.000000)" sketch:type="MSShapeGroup">
                            <circle id="Oval-1" stroke="#FFFFFF" stroke-width="3" fill="#2D99E4" cx="17" cy="17" r="17"></circle>
                            <path d="M12.325,11.4 C12.925003,11.4 13.5083305,11.3500005 14.075,11.25 C14.6416695,11.1499995 15.1541644,10.9833345 15.6125,10.75 C16.0708356,10.5166655 16.4624984,10.2166685 16.7875,9.85 C17.1125016,9.4833315 17.3249995,9.033336 17.425,8.5 L19.75,8.5 L19.75,26 L16.625,26 L16.625,13.65 L12.325,13.65 L12.325,11.4 Z" id="1-" fill="#FFFFFF"></path>
                        </g>
                    </g>
                </g>
                <g id="Group-+-Oval-1-+-1--+-Index-+-List-+-Group-+-Oval-1-+-1--Copy-+-2" transform="translate(101.000000, 46.000000)">
                    <g id="Group-+-Oval-1-+-1-" transform="translate(16.000000, 0.000000)">
                        <g id="Group" transform="translate(0.000000, 15.000000)">
                            <rect id="Rectangle-3" fill="#FFFFFF" sketch:type="MSShapeGroup" x="0" y="0" width="200" height="250" rx="7"></rect>
                            <g id="Rectangle-8">
                                <use fill="#E4E4E4" fill-rule="evenodd" sketch:type="MSShapeGroup" xlink:href="#path-7"></use>
                                <use fill="none" xlink:href="#path-7"></use>
                            </g>
                            <g id="Rectangle-5">
                                <use fill="#E4E4E4" fill-rule="evenodd" sketch:type="MSShapeGroup" xlink:href="#path-8"></use>
                                <use fill="none" xlink:href="#path-8"></use>
                            </g>
                            <g id="Rectangle-5-Copy">
                                <use fill="#E4E4E4" fill-rule="evenodd" sketch:type="MSShapeGroup" xlink:href="#path-9"></use>
                                <use fill="none" xlink:href="#path-9"></use>
                            </g>
                            <g id="Rectangle-4">
                                <use fill="#E4E4E4" fill-rule="evenodd" sketch:type="MSShapeGroup" xlink:href="#path-10"></use>
                                <use fill="none" xlink:href="#path-10"></use>
                            </g>
                        </g>
                        <g id="Oval-1-+-1-" transform="translate(182.000000, 0.000000)" sketch:type="MSShapeGroup">
                            <g id="Oval-1-+-2">
                                <circle id="Oval-1" stroke="#FFFFFF" stroke-width="3" fill="#F0735F" cx="17" cy="17" r="17"></circle>
                                <path d="M22.925,25 L10.975,25 C10.9916667,23.5499928 11.3416633,22.2833387 12.025,21.2 C12.7083367,20.1166612 13.6416608,19.175004 14.825,18.375 C15.3916695,17.9583313 15.9833303,17.5541686 16.6,17.1625 C17.2166697,16.7708314 17.7833308,16.3500022 18.3,15.9 C18.8166692,15.4499978 19.241665,14.9625026 19.575,14.4375 C19.908335,13.9124974 20.0833332,13.3083368 20.1,12.625 C20.1,12.3083317 20.0625004,11.9708351 19.9875,11.6125 C19.9124996,11.2541649 19.7666677,10.9208349 19.55,10.6125 C19.3333323,10.3041651 19.0333352,10.0458344 18.65,9.8375 C18.2666648,9.62916562 17.7666697,9.525 17.15,9.525 C16.5833305,9.525 16.1125019,9.63749888 15.7375,9.8625 C15.3624981,10.0875011 15.0625011,10.3958314 14.8375,10.7875 C14.6124989,11.1791686 14.4458339,11.641664 14.3375,12.175 C14.2291661,12.708336 14.1666668,13.2833303 14.15,13.9 L11.3,13.9 C11.3,12.9333285 11.4291654,12.0375041 11.6875,11.2125 C11.9458346,10.3874959 12.3333307,9.675003 12.85,9.075 C13.3666693,8.474997 13.9958296,8.00416838 14.7375,7.6625 C15.4791704,7.32083162 16.3416617,7.15 17.325,7.15 C18.391672,7.15 19.2833297,7.32499825 20,7.675 C20.7166703,8.02500175 21.2958311,8.466664 21.7375,9 C22.1791689,9.533336 22.4916658,10.1124969 22.675,10.7375 C22.8583343,11.3625031 22.95,11.9583305 22.95,12.525 C22.95,13.2250035 22.8416677,13.8583305 22.625,14.425 C22.4083323,14.9916695 22.1166685,15.5124976 21.75,15.9875 C21.3833315,16.4625024 20.966669,16.899998 20.5,17.3 C20.033331,17.700002 19.5500025,18.0749983 19.05,18.425 C18.5499975,18.7750018 18.0500025,19.1083317 17.55,19.425 C17.0499975,19.7416682 16.5875021,20.0583317 16.1625,20.375 C15.7374979,20.6916683 15.3666682,21.0208316 15.05,21.3625 C14.7333317,21.7041684 14.5166672,22.0666647 14.4,22.45 L22.925,22.45 L22.925,25 Z" id="2" fill="#FFFFFF"></path>
                            </g>
                        </g>
                    </g>
                    <path d="M86.9,304.15 L90.025,304.15 L90.025,322 L86.9,322 L86.9,304.15 Z M93.45,309.075 L96.15,309.075 L96.15,310.975 L96.2,311.025 C96.6333355,310.30833 97.1999965,309.745835 97.9,309.3375 C98.6000035,308.929165 99.3749958,308.725 100.225,308.725 C101.641674,308.725 102.758329,309.091663 103.575,309.825 C104.391671,310.558337 104.8,311.658326 104.8,313.125 L104.8,322 L101.95,322 L101.95,313.875 C101.916667,312.858328 101.700002,312.120836 101.3,311.6625 C100.899998,311.204164 100.275004,310.975 99.425,310.975 C98.9416643,310.975 98.5083353,311.062499 98.125,311.2375 C97.7416648,311.412501 97.416668,311.654165 97.15,311.9625 C96.883332,312.270835 96.6750008,312.633331 96.525,313.05 C96.3749993,313.466669 96.3,313.908331 96.3,314.375 L96.3,322 L93.45,322 L93.45,309.075 Z M119.975,322 L117.275,322 L117.275,320.25 L117.225,320.25 C116.841665,321.000004 116.283337,321.537498 115.55,321.8625 C114.816663,322.187502 114.041671,322.35 113.225,322.35 C112.208328,322.35 111.320837,322.170835 110.5625,321.8125 C109.804163,321.454165 109.175003,320.96667 108.675,320.35 C108.174998,319.73333 107.800001,319.004171 107.55,318.1625 C107.299999,317.320829 107.175,316.416672 107.175,315.45 C107.175,314.283327 107.333332,313.275004 107.65,312.425 C107.966668,311.574996 108.387497,310.875003 108.9125,310.325 C109.437503,309.774997 110.037497,309.370835 110.7125,309.1125 C111.387503,308.854165 112.074997,308.725 112.775,308.725 C113.175002,308.725 113.583331,308.7625 114,308.8375 C114.416669,308.9125 114.816665,309.033333 115.2,309.2 C115.583335,309.366668 115.937498,309.579165 116.2625,309.8375 C116.587502,310.095835 116.858332,310.399998 117.075,310.75 L117.125,310.75 L117.125,304.15 L119.975,304.15 L119.975,322 Z M110.025,315.675 C110.025,316.225003 110.095833,316.766664 110.2375,317.3 C110.379167,317.833336 110.595832,318.308331 110.8875,318.725 C111.179168,319.141669 111.549998,319.474999 112,319.725 C112.450002,319.975001 112.98333,320.1 113.6,320.1 C114.233337,320.1 114.779164,319.966668 115.2375,319.7 C115.695836,319.433332 116.070832,319.083335 116.3625,318.65 C116.654168,318.216664 116.870833,317.729169 117.0125,317.1875 C117.154167,316.645831 117.225,316.09167 117.225,315.525 C117.225,314.091659 116.90417,312.975004 116.2625,312.175 C115.62083,311.374996 114.750006,310.975 113.65,310.975 C112.98333,310.975 112.420836,311.112499 111.9625,311.3875 C111.504164,311.662501 111.129168,312.020831 110.8375,312.4625 C110.545832,312.904169 110.337501,313.404164 110.2125,313.9625 C110.087499,314.520836 110.025,315.091664 110.025,315.675 L110.025,315.675 Z M131.95,314.4 C131.916667,313.949998 131.820834,313.516669 131.6625,313.1 C131.504166,312.683331 131.287501,312.320835 131.0125,312.0125 C130.737499,311.704165 130.404169,311.454168 130.0125,311.2625 C129.620831,311.070832 129.183336,310.975 128.7,310.975 C128.199998,310.975 127.745835,311.062499 127.3375,311.2375 C126.929165,311.412501 126.579168,311.654165 126.2875,311.9625 C125.995832,312.270835 125.762501,312.633331 125.5875,313.05 C125.412499,313.466669 125.316667,313.916664 125.3,314.4 L131.95,314.4 Z M125.3,316.275 C125.3,316.775003 125.370833,317.258331 125.5125,317.725 C125.654167,318.191669 125.866665,318.599998 126.15,318.95 C126.433335,319.300002 126.791665,319.579166 127.225,319.7875 C127.658336,319.995834 128.174997,320.1 128.775,320.1 C129.608338,320.1 130.279164,319.920835 130.7875,319.5625 C131.295836,319.204165 131.674999,318.66667 131.925,317.95 L134.625,317.95 C134.474999,318.650004 134.216669,319.274997 133.85,319.825 C133.483332,320.375003 133.041669,320.837498 132.525,321.2125 C132.008331,321.587502 131.42917,321.870832 130.7875,322.0625 C130.14583,322.254168 129.475004,322.35 128.775,322.35 C127.758328,322.35 126.858337,322.183335 126.075,321.85 C125.291663,321.516665 124.629169,321.050003 124.0875,320.45 C123.545831,319.849997 123.137501,319.133337 122.8625,318.3 C122.587499,317.466662 122.45,316.550005 122.45,315.55 C122.45,314.633329 122.595832,313.762504 122.8875,312.9375 C123.179168,312.112496 123.595831,311.387503 124.1375,310.7625 C124.679169,310.137497 125.33333,309.641668 126.1,309.275 C126.866671,308.908331 127.733329,308.725 128.7,308.725 C129.716672,308.725 130.629163,308.937498 131.4375,309.3625 C132.245837,309.787502 132.916664,310.349996 133.45,311.05 C133.983336,311.750003 134.370832,312.554162 134.6125,313.4625 C134.854168,314.370838 134.916667,315.308329 134.8,316.275 L125.3,316.275 Z M140.45,315.2 L135.975,309.075 L139.425,309.075 L142.125,313.05 L144.95,309.075 L148.25,309.075 L143.85,315.05 L148.8,322 L145.375,322 L142.1,317.225 L138.925,322 L135.575,322 L140.45,315.2 Z" id="Index" fill="#FFFFFF" sketch:type="MSShapeGroup"></path>
                    <g id="List-+-Group-+-Oval-1-+-1--Copy-+-2" transform="translate(0.000000, 1.000000)">
                        <g id="List-+-Group-+-Oval-1-+-1--Copy"></g>
                    </g>
                </g>
                <g id="Path-10-+-Oval-3-+-Oval-4" transform="translate(0.000000, 52.000000)" sketch:type="MSShapeGroup">
                    <path d="M42.4544026,6.29141565 L0.100494763,6.29141565 L0.100494763,248.308555 L53.8528051,248.308555 L53.8528051,290.400261 L217.991475,290.400261 L217.991475,245.75446" id="Path-10" stroke="#394045" stroke-width="2" stroke-dasharray="8"></path>
                    <circle id="Oval-3" fill="#FFFFFF" cx="34.5" cy="6.5" r="6.5"></circle>
                    <circle id="Oval-4" fill="#FFFFFF" cx="218" cy="259" r="7"></circle>
                </g>
            </g>
        </g>
    </g>
</svg>